<svg width="1205" height="143" viewBox="0 0 1205 143" fill="none" xmlns="http://www.w3.org/2000/svg">
<path d="M1.92325 43.5782C-0.780243 43.9644 17.1153 64.6951 19.1947 66.8613C27.3458 75.352 35.4437 84.2247 44.8634 91.2894C66.8816 107.803 95.1862 118.107 122.156 123.351C151.111 128.982 180.638 132.031 209.754 136.711C236.161 140.955 268.222 143.559 294.68 138.81C338.132 131.011 382.392 120.642 424.073 106.748C438.249 102.022 451.843 95.2008 465.581 89.1901C472.506 86.1604 478.547 80.5158 484.57 75.831C492.097 69.9767 500.308 65.1301 507.281 58.6549C522.09 44.904 546.635 42.8301 564.344 34.6084C575.391 29.4795 587.108 24.0418 598.791 20.4859C611.837 16.5153 625.266 10.1329 639.06 9.32147C650.121 8.67078 660.578 4.48847 671.789 4.07323C687.979 3.47363 703.987 2.35563 720.264 2.35563C738.962 2.35563 757.783 1.73241 776.468 2.45105C797.549 3.26187 818.134 9.08308 839.065 10.9437C857.175 12.5534 875.506 14.4415 893.361 17.8141C907.824 20.5461 922.506 24.3941 937.064 26.4021C955.494 28.9441 971.78 37.2653 989.165 43.1965C1005.81 48.8748 1022.42 50.4557 1039.36 54.2655C1054.86 57.7525 1070.92 57.3619 1086.59 59.8C1107.11 62.9924 1127.42 61.6505 1148.04 62.5672C1166.3 63.3785 1185 66.5988 1202.53 60.7542" stroke="black" stroke-width="3" stroke-linecap="round"/>
</svg>
