<svg width="1204" height="109" viewBox="0 0 1204 109" fill="none" xmlns="http://www.w3.org/2000/svg">
<path d="M1.74719 39.5155C2.23711 35.5961 11.3264 30.4903 14.1521 27.8739C23.7436 18.9929 38.8946 15.2538 51.5578 13.8468C78.7847 10.8216 104.875 1.72815 132.667 1.72815C175.762 1.72815 219.107 3.97505 261.869 9.45738C295.259 13.7382 328.935 19.3885 362.444 22.4348C380.888 24.1115 398.542 30.5776 416.74 33.4084C445.692 37.912 472.255 46.622 500.235 54.9739C537.289 66.0351 571.116 85.9428 608.157 97.0553C644.325 107.906 676.926 107.103 714.172 106.502C725.917 106.313 736.399 101.349 747.188 101.349C758.651 101.349 769.857 94.4789 780.681 94.4789C792.265 94.4789 804.164 83.1072 815.892 82.4556C831.105 81.6105 845.615 72.15 861.313 72.15C870.774 72.15 882.688 67.6461 891.849 64.8979C904.487 61.1063 920.261 57.8525 933.453 56.5961C965.316 53.5616 996.386 42.9507 1028.88 42.9507C1041.6 42.9507 1054.32 42.9507 1067.04 42.9507C1080.85 42.9507 1099.66 41.3156 1113.13 45.5271C1127.67 50.0707 1145.79 48.1035 1161.13 48.1035C1168.6 48.1035 1198.99 47.9549 1202.35 41.2331" stroke="black" stroke-width="3" stroke-linecap="round"/>
</svg>
